# xmcd
# 
# Track frame offsets:
#     182
#     15495
#     30412
#     47592
# 
# Disc length: 709
# 
# Revision: 0
# Processed by: cddbd v1.5.2PL0 Copyright (c) Steve Scherf et al.
# Submitted via: fre:ac v1.1beta1pre2
# 
DISCID=2002c304
DTITLE=Iron Maiden - Be Quick Or Be Dead
DYEAR=1992
DGENRE=Hard Rock
TTITLE0=Be Quick Or Be Dead
TTITLE1=Nodding Donkey Blues
TTITLE2=Space Station N°5
TTITLE3=The French Message From Bruce Dickinson
EXTD=
EXTT0=
EXTT1=
EXTT2=
EXTT3=
PLAYORDER=
